HIERARCHY
ROOT Hips
{
	OFFSET 0.000000 0.000000 0.000000
	CHANNELS 6 Xposition Yposition Zposition Zrotation Yrotation Xrotation 
	JOINT Spine1
	{
		OFFSET 0.000000 10.000000 0.000000
		CHANNELS 3 Zrotation Yrotation Xrotation
		JOINT Spine2
		{
			OFFSET 0.000000 10.000000 0.000000
			CHANNELS 3 Zrotation Yrotation Xrotation
			JOINT Spine3
			{
				OFFSET 0.000000 10.000000 0.000000
				CHANNELS 3 Zrotation Yrotation Xrotation
				JOINT Spine4
				{
					OFFSET 0.000000 10.000000 0.000000
					CHANNELS 3 Zrotation Yrotation Xrotation
					End Site
					{
						OFFSET 0.000000 0.000000 0.000000
					}
				}
			}
		}
	}
}
MOTION
Frames: 34
Frame Time: 0.033333
0.000000 0.000000 0.000000 0.000000 0.000000 -0.000000 0.000000 0.000000 -0.000000 0.000000 0.000000 -0.000000 0.000000 0.000000 -0.000000 0.000000 0.000000 -0.000000 
0.000000 0.000000 0.000000 1.108951 0.000000 0.739300 0.831713 0.000000 0.554475 0.554475 0.000000 0.369650 0.277238 0.000000 0.184825 0.000000 0.000000 0.000000 
0.000000 0.000000 0.000000 1.971294 -0.000007 1.314133 1.761108 -0.000006 1.174097 1.308642 -0.000004 0.872486 0.694685 -0.000002 0.463166 0.000000 0.000000 0.000000 
0.000000 0.000000 0.000000 2.545591 -0.000069 1.696480 2.797649 -0.000047 1.865313 2.310869 -0.000023 1.541143 1.293664 -0.000008 0.862871 0.000000 0.000000 0.000000 
0.000000 0.000000 0.000000 2.787890 -0.000303 1.856148 3.950210 -0.000178 2.634293 3.614430 -0.000045 2.412099 2.120827 0.000012 1.415854 0.000000 0.000000 0.000000 
0.000000 0.000000 0.000000 2.657521 -0.000952 1.764381 5.224696 -0.000497 3.485334 5.271518 0.000034 3.522036 3.223554 0.000200 2.155409 0.000000 0.000000 0.000000 
0.000000 0.000000 0.000000 2.128399 -0.002500 1.400889 6.620026 -0.001217 4.418211 7.321024 0.000480 4.900316 4.640038 0.000942 3.110308 0.000000 0.000000 0.000000 
0.000000 0.000000 0.000000 1.205944 -0.005840 0.764278 8.122934 -0.002839 5.424821 9.769562 0.001767 6.557298 6.383274 0.003055 4.295180 0.000000 0.000000 0.000000 
0.000000 0.000000 0.000000 -0.056151 -0.012431 -0.117662 9.704127 -0.006445 6.486769 12.571564 0.004452 8.472030 8.423375 0.007905 5.699757 0.000000 0.000000 0.000000 
0.000000 0.000000 0.000000 -1.552568 -0.024321 -1.185662 11.320087 -0.014058 7.576582 15.622988 0.008748 10.587906 10.680322 0.017249 7.283883 0.000000 0.000000 0.000000 
0.000000 0.000000 0.000000 -3.147117 -0.043954 -2.360724 12.922513 -0.028834 8.663657 18.781430 0.013874 12.823665 13.038825 0.032662 8.984883 0.000000 0.000000 0.000000 
0.000000 0.000000 0.000000 -4.709238 -0.073917 -3.564866 14.470603 -0.054845 9.721868 21.905032 0.017649 15.095287 15.380354 0.054838 10.734674 0.000000 0.000000 0.000000 
0.000000 0.000000 0.000000 -6.142869 -0.116775 -4.737575 15.938304 -0.096497 10.733992 24.885025 0.016718 17.334573 17.611567 0.083254 12.475444 0.000000 0.000000 0.000000 
0.000000 0.000000 0.000000 -7.394338 -0.174997 -5.840704 17.314030 -0.157867 11.691582 27.656266 0.007252 19.495779 19.674880 0.116376 14.166280 0.000000 0.000000 0.000000 
0.000000 0.000000 0.000000 -8.444669 -0.250853 -6.854951 18.596269 -0.242244 12.592395 30.190527 -0.014345 21.552908 21.544096 0.152123 15.782086 0.000000 0.000000 0.000000 
0.000000 0.000000 0.000000 -9.297370 -0.346261 -7.773860 19.788979 -0.351919 13.437686 32.484239 -0.050990 23.493904 23.214623 0.188313 17.309527 0.000000 0.000000 0.000000 
0.000000 0.000000 0.000000 -9.968114 -0.462652 -8.598683 20.898388 -0.488185 14.230316 34.547788 -0.104759 25.315422 24.694498 0.222938 18.743074 0.000000 0.000000 0.000000 
0.000000 0.000000 0.000000 -10.477851 -0.600877 -9.334876 21.931208 -0.651433 14.973656 36.398253 -0.176901 27.019180 25.998087 0.254315 20.082065 0.000000 0.000000 0.000000 
0.000000 0.000000 0.000000 -10.848758 -0.761191 -9.989921 22.893795 -0.841301 15.671050 38.055071 -0.267941 28.609652 27.142214 0.281127 21.328768 0.000000 0.000000 0.000000 
0.000000 0.000000 0.000000 -11.102097 -0.943297 -10.572045 23.791848 -1.056825 16.325577 39.537687 -0.377809 30.092685 28.143976 0.302416 22.487124 0.000000 0.000000 0.000000 
0.000000 0.000000 0.000000 -11.257196 -1.146423 -11.089481 24.630351 -1.296595 16.939979 40.864390 -0.505976 31.474681 29.019616 0.317540 23.561958 0.000000 0.000000 0.000000 
0.000000 0.000000 0.000000 -11.331086 -1.369411 -11.550059 25.413636 -1.558873 17.516671 42.051821 -0.651569 32.762119 29.784006 0.326128 24.558475 0.000000 0.000000 0.000000 
0.000000 0.000000 0.000000 -11.338478 -1.610817 -11.960986 26.145479 -1.841710 18.057773 43.114849 -0.813476 33.961288 30.450474 0.328025 25.481942 0.000000 0.000000 0.000000 
0.000000 0.000000 0.000000 -11.291911 -1.868993 -12.328758 26.829196 -2.143025 18.565161 44.066622 -0.990422 35.078138 31.030813 0.323242 26.337492 0.000000 0.000000 0.000000 
0.000000 0.000000 0.000000 -11.201980 -2.142164 -12.659134 27.467732 -2.460679 19.040513 44.918712 -1.181038 36.118215 31.535385 0.311916 27.130011 0.000000 0.000000 0.000000 
0.000000 0.000000 0.000000 -11.077581 -2.428483 -12.957155 28.063728 -2.792520 19.485350 45.681285 -1.383912 37.086640 31.973253 0.294269 27.864071 0.000000 0.000000 0.000000 
0.000000 0.000000 0.000000 -10.926154 -2.726083 -13.227191 28.619580 -3.136424 19.901070 46.363276 -1.597624 37.988108 32.352332 0.270582 28.543910 0.000000 0.000000 0.000000 
0.000000 0.000000 0.000000 -10.753899 -3.033113 -13.473002 29.137480 -3.490323 20.288973 46.972546 -1.820776 38.826918 32.679534 0.241173 29.173423 0.000000 0.000000 0.000000 
0.000000 0.000000 0.000000 -10.565976 -3.347757 -13.697795 29.619455 -3.852220 20.650286 47.516034 -2.052009 39.606996 32.960892 0.206376 29.756178 0.000000 0.000000 0.000000 
0.000000 0.000000 0.000000 -10.366668 -3.668264 -13.904294 30.067387 -4.220207 20.986177 47.999883 -2.290018 40.331936 33.201686 0.166535 30.295434 0.000000 0.000000 0.000000 
0.000000 0.000000 0.000000 -10.159528 -3.992952 -14.094801 30.483040 -4.592469 21.297768 48.429546 -2.533557 41.005031 33.406536 0.121991 30.794163 0.000000 0.000000 0.000000 
0.000000 0.000000 0.000000 -9.947496 -4.320223 -14.271251 30.868071 -4.967289 21.586143 48.809886 -2.781446 41.629310 33.579498 0.073081 31.255082 0.000000 0.000000 0.000000 
0.000000 0.000000 0.000000 -9.733005 -4.648566 -14.435267 31.224049 -5.343055 21.852352 49.145254 -3.032573 42.207567 33.724137 0.020133 31.680675 0.000000 0.000000 0.000000 
0.000000 0.000000 0.000000 -9.518059 -4.976562 -14.588205 31.552459 -5.718256 22.097421 49.439557 -3.285890 42.742393 33.843592 -0.036530 32.073219 0.000000 0.000000 0.000000 
